<svg width="24" height="24" viewBox="0 0 24 24" fill="none" xmlns="http://www.w3.org/2000/svg">
<circle cx="12" cy="12" r="11" fill="white" stroke="black" stroke-width="2"/>
<path d="M12.2625 7C13.1958 7 13.9425 7.252 14.5025 7.756C15.0625 8.26 15.3425 8.96 15.3425 9.856C15.3425 10.8267 15.0391 11.5593 14.4325 12.054C13.8351 12.5393 13.0185 12.7913 11.9825 12.81V14.35H10.4705V11.746H11.1425C11.9545 11.746 12.5938 11.6153 13.0605 11.354C13.5271 11.0833 13.7605 10.5887 13.7605 9.87C13.7605 9.38467 13.6205 9.00667 13.3405 8.736C13.0605 8.456 12.6825 8.316 12.2065 8.316C11.7025 8.316 11.2965 8.46067 10.9885 8.75C10.6805 9.03933 10.5265 9.41733 10.5265 9.884H9.00048C8.99115 9.324 9.11715 8.82933 9.37848 8.4C9.63982 7.96133 10.0178 7.62067 10.5125 7.378C11.0071 7.126 11.5905 7 12.2625 7ZM12.1505 15.596V17.36H10.3305V15.596H12.1505Z" fill="black"/>
</svg>
