<svg width="14" height="16" viewBox="0 0 14 16" fill="none" xmlns="http://www.w3.org/2000/svg">
<path fill-rule="evenodd" clip-rule="evenodd" d="M12 14.5C12 14.318 11.963 14.146 11.903 13.984C12.797 13.905 13.5 13.164 13.5 12.25C13.5 11.789 13.318 11.373 13.027 11.061C13.602 10.773 14 10.186 14 9.50001C14 8.81301 13.602 8.22701 13.027 7.93901C13.426 7.51201 13.619 6.88901 13.422 6.22401C13.201 5.48001 12.472 5.00001 11.696 5.00001H9H8L8.789 3.42201C8.928 3.14501 9 2.83801 9 2.52701V2.50001C9 1.12301 7.888 0.00701335 6.513 1.33482e-05C6.233 -0.00198665 6 0.221013 6 0.500013V1.62401C6 1.86601 5.912 2.10101 5.752 2.28201L2.799 5.65801C2.609 5.87501 2.334 6.00001 2.046 6.00001H0V14H2.049C2.348 14 2.646 14.045 2.931 14.133L5.654 15.136C7.206 15.707 8.846 16 10.5 16C11.329 16 12 15.328 12 14.5Z" fill="black"/>
</svg>
