<svg width="14" height="16" viewBox="0 0 14 16" fill="none" xmlns="http://www.w3.org/2000/svg">
<path fill-rule="evenodd" clip-rule="evenodd" d="M12 1.49999C12 1.68199 11.963 1.85399 11.903 2.01599C12.797 2.09499 13.5 2.83599 13.5 3.74999C13.5 4.21099 13.318 4.62699 13.027 4.93899C13.602 5.22699 14 5.81399 14 6.49999C14 7.18699 13.602 7.77299 13.027 8.06099C13.426 8.48799 13.619 9.11099 13.422 9.77599C13.201 10.52 12.472 11 11.696 11H9H8L8.789 12.578C8.928 12.855 9 13.162 9 13.473V13.5C9 14.877 7.888 15.993 6.513 16C6.233 16.002 6 15.779 6 15.5V14.376C6 14.134 5.912 13.899 5.752 13.718L2.799 10.342C2.609 10.125 2.334 9.99999 2.046 9.99999H0V1.99999H2.049C2.348 1.99999 2.646 1.95499 2.931 1.86699L5.654 0.863987C7.206 0.292987 8.846 -1.33514e-05 10.5 -1.33514e-05C11.329 -1.33514e-05 12 0.671987 12 1.49999Z" fill="black"/>
</svg>
