<svg width="14" height="16" viewBox="0 0 14 16" fill="none" xmlns="http://www.w3.org/2000/svg">
<path d="M11.2067 2.4564L11.859 2.51405C12.5016 2.57084 13 3.10177 13 3.74999C13 4.07581 12.8721 4.37205 12.6614 4.59795L12.2055 5.08673L12.8031 5.38604C13.2194 5.59456 13.5 6.01475 13.5 6.49999C13.5 6.98606 13.2195 7.40533 12.8031 7.61393L12.2049 7.91354L12.6617 8.40236C12.9474 8.70814 13.0861 9.1495 12.9426 9.63387L11.2067 2.4564ZM11.2067 2.4564L11.4341 1.84233M11.2067 2.4564L11.4341 1.84233M11.4341 1.84233C11.4772 1.72598 11.5 1.61298 11.5 1.49999C11.5 0.947912 11.0526 0.499987 10.5 0.499987C8.90508 0.499987 7.32352 0.782516 5.82664 1.33324L3.10382 2.33617L3.09128 2.34079L3.07851 2.34473C2.74572 2.44749 2.39799 2.49999 2.049 2.49999H0.5V9.49999H2.046C2.47855 9.49999 2.89052 9.6875 3.17518 10.0126L3.17534 10.0128L6.12662 13.3868M11.4341 1.84233L6.12662 13.3868M6.12662 13.3868C6.12694 13.3872 6.12727 13.3876 6.1276 13.3879C6.36874 13.6613 6.5 14.014 6.5 14.376V15.4968C6.50226 15.4988 6.50531 15.5 6.50943 15.5L6.51045 15.5C7.61049 15.4944 8.5 14.6017 8.5 13.5V13.473C8.5 13.2389 8.44578 13.0088 8.34211 12.8022L8.34179 12.8016L7.55279 11.2236L7.19098 10.5H8H9H11.696C12.2797 10.5 12.7924 10.1389 12.9426 9.63397L6.12662 13.3868Z" stroke="black"/>
</svg>
