<svg width="14" height="16" viewBox="0 0 14 16" fill="none" xmlns="http://www.w3.org/2000/svg">
<path d="M11.2067 13.5436L11.859 13.486C12.5016 13.4292 13 12.8982 13 12.25C13 11.9242 12.8721 11.628 12.6614 11.402L12.2055 10.9133L12.8031 10.614C13.2194 10.4054 13.5 9.98525 13.5 9.50001C13.5 9.01393 13.2195 8.59466 12.8031 8.38607L12.2049 8.08646L12.6617 7.59764C12.9474 7.29186 13.0861 6.85049 12.9426 6.36613L11.2067 13.5436ZM11.2067 13.5436L11.4341 14.1577M11.2067 13.5436L11.4341 14.1577M11.4341 14.1577C11.4772 14.274 11.5 14.387 11.5 14.5C11.5 15.0521 11.0526 15.5 10.5 15.5C8.90508 15.5 7.32352 15.2175 5.82664 14.6668L3.10382 13.6638L3.09128 13.6592L3.07852 13.6553C2.74572 13.5525 2.39799 13.5 2.049 13.5L0.500001 13.5L0.500001 6.50001L2.046 6.50001C2.47855 6.50001 2.89052 6.3125 3.17518 5.98739L3.17534 5.9872L6.12662 2.61317M11.4341 14.1577L6.12662 2.61317M6.12662 2.61317C6.12694 2.6128 6.12727 2.61243 6.1276 2.61205C6.36874 2.33871 6.5 1.98602 6.5 1.62401L6.5 0.503201C6.50226 0.501237 6.50531 0.499971 6.50943 0.500001L6.51045 0.500006C7.61049 0.505606 8.5 1.39834 8.5 2.50001L8.5 2.52701C8.5 2.76105 8.44578 2.99116 8.34211 3.19776L8.34179 3.19841L7.55279 4.77641L7.19098 5.50001L8 5.50001L9 5.50001L11.696 5.50001C12.2797 5.50001 12.7924 5.86106 12.9426 6.36603L6.12662 2.61317Z" stroke="black"/>
</svg>
