<svg width="237" height="26" viewBox="0 0 237 26" fill="none" xmlns="http://www.w3.org/2000/svg">
<path d="M21.888 24.452V26H0V24.452H8.136V5.696H1.008V0.835998H20.88V5.696H13.752V24.452H21.888ZM49.3343 24.452V26H40.6223V16.1H30.6143V26H21.9023V24.452H24.9983V0.835998H30.6143V11.348H40.6223V0.835998H46.2383V24.452H49.3343ZM61.1322 24.452V26H49.3242V24.452H52.4202V0.835998H58.0362V24.452H61.1322ZM64.2327 24.452V0.835998H73.7727C77.6847 0.835998 80.4687 1.496 82.1247 2.816C83.8047 4.136 84.6447 6.26 84.6447 9.188C84.6447 13.22 83.0487 15.824 79.8567 17L85.1127 24.452H88.4967V26H79.3167L73.7367 17.972H69.8487V26H60.7407V24.452H64.2327ZM73.9527 13.112C75.8727 13.112 77.1807 12.8 77.8767 12.176C78.5727 11.552 78.9207 10.568 78.9207 9.224C78.9207 7.856 78.5607 6.92 77.8407 6.416C77.1207 5.912 75.8607 5.66 74.0607 5.66H69.8487V13.112H73.9527ZM115.445 24.452V26H86.897V24.452H90.389V0.835998H99.281C103.769 0.835998 107.213 1.94 109.613 4.148C112.013 6.332 113.213 9.416 113.213 13.4C113.213 18.776 111.125 22.46 106.949 24.452H115.445ZM99.569 21.032C102.137 21.032 104.105 20.384 105.473 19.088C106.865 17.792 107.561 15.908 107.561 13.436C107.561 10.964 106.865 9.068 105.473 7.748C104.105 6.404 101.993 5.732 99.137 5.732H96.005V21.032H99.569ZM124.957 24.452V26H115.453V24.452H124.957ZM152.377 24.452V26H143.665V16.1H133.657V26H124.945V24.452H128.041V0.835998H133.657V11.348H143.665V0.835998H149.281V24.452H152.377ZM182.859 24.452V26H173.391L171.051 20.564H160.503L158.163 26H148.695V24.452H152.835L163.059 0.835998H168.495L178.683 24.452H182.859ZM165.795 8.324L162.627 15.632H168.927L165.795 8.324ZM182.287 24.452V0.835998H187.543L199.891 17.036V0.835998H205.507V24.452H208.999V26H199.891L187.903 10.232V26H178.795V24.452H182.287ZM236.769 24.452V26H208.221V24.452H211.713V0.835998H220.605C225.093 0.835998 228.537 1.94 230.937 4.148C233.337 6.332 234.537 9.416 234.537 13.4C234.537 18.776 232.449 22.46 228.273 24.452H236.769ZM220.893 21.032C223.461 21.032 225.429 20.384 226.797 19.088C228.189 17.792 228.885 15.908 228.885 13.436C228.885 10.964 228.189 9.068 226.797 7.748C225.429 6.404 223.317 5.732 220.461 5.732H217.329V21.032H220.893Z" fill="white"/>
</svg>
