<svg width="41" height="38" viewBox="0 0 41 38" fill="none" xmlns="http://www.w3.org/2000/svg">
<path d="M10.5175 35.932L20.2122 29.0817C20.4803 28.8923 20.6383 28.5833 20.6351 28.255L20.413 6.05112C20.4017 4.92009 18.8162 4.67435 18.4631 5.74889L15.8497 13.7005C15.7148 14.1109 15.3316 14.3883 14.8997 14.3883H3.57256C2.60383 14.3883 2.20106 15.6279 2.98477 16.1973L12.1465 22.8537C12.497 23.1083 12.6436 23.5597 12.5098 23.9717L8.98941 34.8063C8.69213 35.7212 9.73187 36.4872 10.5175 35.932Z" fill="#EFFF32"/>
<path d="M20.4063 3.23607L23.9058 14.0063C24.1735 14.8304 24.9415 15.3883 25.8079 15.3883H37.1324L27.9707 22.0447C27.2697 22.554 26.9764 23.4567 27.2442 24.2807L30.7436 35.051L21.5819 28.3946C20.8809 27.8853 19.9317 27.8853 19.2308 28.3946L10.069 35.051L13.5685 24.2807C13.8362 23.4567 13.5429 22.554 12.842 22.0447L3.68022 15.3883L15.0047 15.3883C15.8712 15.3883 16.6391 14.8304 16.9069 14.0063L20.4063 3.23607Z" stroke="black" stroke-width="2"/>
</svg>
