<svg width="96" height="96" viewBox="0 0 96 96" fill="none" xmlns="http://www.w3.org/2000/svg">
<path d="M94 94H1V1H91.0632L94.5 3L94 94Z" fill="black"/>
<rect x="1" y="1" width="94" height="94" rx="3" stroke="black" stroke-width="2" stroke-linejoin="round"/>
<path fill-rule="evenodd" clip-rule="evenodd" d="M41 38H79V51V66V66.625L60 76L41 66.625V66V51V38Z" fill="black"/>
<path d="M79 38H80V37H79V38ZM41 38V37H40V38H41ZM79 66.625L79.4425 67.5218L80 67.2467V66.625H79ZM60 76L59.5575 76.8968L60 77.1151L60.4425 76.8968L60 76ZM41 66.625H40V67.2467L40.5575 67.5218L41 66.625ZM79 37H41V39H79V37ZM80 51V38H78V51H80ZM78 51V66H80V51H78ZM78 66V66.625H80V66H78ZM78.5575 65.7282L59.5575 75.1032L60.4425 76.8968L79.4425 67.5218L78.5575 65.7282ZM60.4425 75.1032L41.4425 65.7282L40.5575 67.5218L59.5575 76.8968L60.4425 75.1032ZM42 66.625V66H40V66.625H42ZM42 66V51H40V66H42ZM40 38V51H42V38H40Z" fill="white"/>
</svg>
