<svg width="96" height="96" viewBox="0 0 96 96" fill="none" xmlns="http://www.w3.org/2000/svg">
<path d="M95 48H1V1H95V48Z" fill="black"/>
<path fill-rule="evenodd" clip-rule="evenodd" d="M12.7502 69H12.75V74.125C12.75 77.3697 10.1196 80 6.87498 80C3.63032 80 1 77.3697 1 74.125V69V58.875V50H95V58.875V69V74.125C95 77.3697 92.3697 80 89.125 80C85.8803 80 83.25 77.3697 83.25 74.125V69H83.2498V74.125C83.2498 77.3697 80.6195 80 77.3748 80C74.1301 80 71.4998 77.3697 71.4998 74.125V69H71.4996V74.125C71.4996 77.3697 68.8693 80 65.6246 80C62.398 80 59.7789 77.3988 59.7498 74.1791C59.7208 77.3988 57.1017 80 53.8751 80C50.6304 80 48.0001 77.3697 48.0001 74.125V69H47.9999V74.125C47.9999 77.3697 45.3696 80 42.1249 80C38.8802 80 36.2499 77.3697 36.2499 74.125V69H36.2497V74.125C36.2497 77.3697 33.6193 80 30.3747 80C27.148 80 24.5289 77.3988 24.4999 74.1791C24.4709 77.3988 21.8518 80 18.6252 80C15.3805 80 12.7502 77.3697 12.7502 74.125V69Z" fill="black"/>
</svg>
